<?xml version="1.0" encoding="utf-8"?>
<svg xmlns="http://www.w3.org/2000/svg" xmlns:xlink="http://www.w3.org/1999/xlink" viewBox="0 0 128 128" preserveAspectRatio="xMidYMid" width="128" height="128" style="shape-rendering: auto; background: rgb(255, 255, 255);"><g transform="scale(0.5)"><path d="M -256 12.240000000000002 C -192 12.240000000000002 -192 2 -128 2 C -64 2 -64 12.240000000000002 2 12.240000000000002 C 64 12.240000000000002 64 2 128 2 C 192 2 192 12.240000000000002 256 12.240000000000002 L 384 384 L -384 384 L -384 12.240000000000002 Z" fill="#f0f9e8" stroke="#f0f9e8" stroke-width="1" transform="translate(0 -51.2)">
  <animateTransform attributeName="transform" type="translate" values="256 -51.2;0 -51.2;256 -51.2" keyTimes="0;0.5;1" dur="3.3333333333333335s" repeatCount="indefinite" calcMode="spline" begin="0s" keySplines="0.5 0 0.5 1;0.5 0 0.5 1"></animateTransform>
</path><path d="M -256 12.240000000000002 C -192 12.240000000000002 -192 2 -128 2 C -64 2 -64 12.240000000000002 2 12.240000000000002 C 64 12.240000000000002 64 2 128 2 C 192 2 192 12.240000000000002 256 12.240000000000002 L 384 384 L -384 384 L -384 12.240000000000002 Z" fill="#bae4bc" stroke="#bae4bc" stroke-width="1" transform="translate(0 0)">
  <animateTransform attributeName="transform" type="translate" values="0 0;256 0;0 0" keyTimes="0;0.5;1" dur="3.3333333333333335s" repeatCount="indefinite" calcMode="spline" begin="-0.3333333333333333s" keySplines="0.5 0 0.5 1;0.5 0 0.5 1"></animateTransform>
</path><path d="M -256 12.240000000000002 C -192 12.240000000000002 -192 2 -128 2 C -64 2 -64 12.240000000000002 2 12.240000000000002 C 64 12.240000000000002 64 2 128 2 C 192 2 192 12.240000000000002 256 12.240000000000002 L 384 384 L -384 384 L -384 12.240000000000002 Z" fill="#7bccc4" stroke="#7bccc4" stroke-width="1" transform="translate(0 51.2)">
  <animateTransform attributeName="transform" type="translate" values="256 51.2;0 51.2;256 51.2" keyTimes="0;0.5;1" dur="3.3333333333333335s" repeatCount="indefinite" calcMode="spline" begin="-0.6666666666666666s" keySplines="0.5 0 0.5 1;0.5 0 0.5 1"></animateTransform>
</path><path d="M -256 12.240000000000002 C -192 12.240000000000002 -192 2 -128 2 C -64 2 -64 12.240000000000002 2 12.240000000000002 C 64 12.240000000000002 64 2 128 2 C 192 2 192 12.240000000000002 256 12.240000000000002 L 384 384 L -384 384 L -384 12.240000000000002 Z" fill="#43a2ca" stroke="#43a2ca" stroke-width="1" transform="translate(0 102.4)">
  <animateTransform attributeName="transform" type="translate" values="0 102.4;256 102.4;0 102.4" keyTimes="0;0.5;1" dur="3.3333333333333335s" repeatCount="indefinite" calcMode="spline" begin="-1s" keySplines="0.5 0 0.5 1;0.5 0 0.5 1"></animateTransform>
</path><path d="M -256 12.240000000000002 C -192 12.240000000000002 -192 2 -128 2 C -64 2 -64 12.240000000000002 2 12.240000000000002 C 64 12.240000000000002 64 2 128 2 C 192 2 192 12.240000000000002 256 12.240000000000002 L 384 384 L -384 384 L -384 12.240000000000002 Z" fill="#0868ac" stroke="#0868ac" stroke-width="1" transform="translate(0 153.6)">
  <animateTransform attributeName="transform" type="translate" values="256 153.6;0 153.6;256 153.6" keyTimes="0;0.5;1" dur="3.3333333333333335s" repeatCount="indefinite" calcMode="spline" begin="-1.3333333333333333s" keySplines="0.5 0 0.5 1;0.5 0 0.5 1"></animateTransform>
</path><path d="M -256 12.240000000000002 C -192 12.240000000000002 -192 2 -128 2 C -64 2 -64 12.240000000000002 2 12.240000000000002 C 64 12.240000000000002 64 2 128 2 C 192 2 192 12.240000000000002 256 12.240000000000002 L 384 384 L -384 384 L -384 12.240000000000002 Z" fill="#f0f9e8" stroke="#f0f9e8" stroke-width="1" transform="translate(0 204.8)">
  <animateTransform attributeName="transform" type="translate" values="0 204.8;256 204.8;0 204.8" keyTimes="0;0.5;1" dur="3.3333333333333335s" repeatCount="indefinite" calcMode="spline" begin="0s" keySplines="0.5 0 0.5 1;0.5 0 0.5 1"></animateTransform>
</path></g></svg>