<svg xmlns:xlink="http://www.w3.org/1999/xlink" xml:space="preserve" viewBox="0 0 100 100" y="0" x="0" xmlns="http://www.w3.org/2000/svg" id="圖層_1" version="1.1" style="margin: initial; display: block; shape-rendering: auto; background: rgb(255, 255, 255);" preserveAspectRatio="xMidYMid" width="200" height="200"><g class="ldl-scale" style="transform-origin: 50% 50%; transform: rotate(0deg) scale(0.8, 0.8);"><g class="ldl-ani"><g class="ldl-layer"><g class="ldl-ani" style="opacity: 1; transform-origin: 50px 50px; transform: matrix3d(0.91, 0, 0, 0, 0, 0.91, 0, 0, 0, 0, 0.91, 0, 0, 0, 0, 1); animation: 1s linear -0.6s infinite normal forwards running animate; transform-box: view-box;"><circle stroke-miterlimit="10" stroke-width="4px" stroke="#333333" fill="#F5E169" r="40" cy="50" cx="50" style=""></circle></g></g><g class="ldl-layer"><g class="ldl-ani" style="opacity: 1; transform-origin: 50px 50px; transform: matrix3d(0.91, 0, 0, 0, 0, 0.91, 0, 0, 0, 0, 0.91, 0, 0, 0, 0, 1); animation: 1s linear -0.7s infinite normal forwards running animate; transform-box: view-box;"><circle fill="#333333" r="5.6" cy="50" cx="50" style="stroke-width: 1;"></circle></g></g><g class="ldl-layer"><g class="ldl-ani" style="opacity: 1; transform-origin: 50px 50px; transform: matrix3d(0.91, 0, 0, 0, 0, 0.91, 0, 0, 0, 0, 0.91, 0, 0, 0, 0, 1); animation: 1s linear -0.8s infinite normal forwards running animate; transform-box: view-box;"><path fill="#333333" d="M55.1 41.2L65 24c-4.4-2.6-9.5-4-15-4s-10.6 1.5-15 4l9.9 17.2c1.5-.9 3.2-1.4 5.1-1.4s3.6.6 5.1 1.4z" style="stroke-width: 1;"></path></g></g><g class="ldl-layer"><g class="ldl-ani" style="opacity: 1; transform-origin: 50px 50px; transform: matrix3d(0.91, 0, 0, 0, 0, 0.91, 0, 0, 0, 0, 0.91, 0, 0, 0, 0, 1); animation: 1s linear -0.9s infinite normal forwards running animate; transform-box: view-box;"><path fill="#333333" d="M39.9 50H20c0 5.1 1.3 10.3 4 15 2.7 4.7 6.6 8.4 11 11l9.9-17.2c-3-1.8-5-5.1-5-8.8z" style="stroke-width: 1;"></path></g></g><g class="ldl-layer"><g class="ldl-ani" style="opacity: 1; transform-origin: 50px 50px; transform: matrix3d(0.91, 0, 0, 0, 0, 0.91, 0, 0, 0, 0, 0.91, 0, 0, 0, 0, 1); animation: 1s linear -1s infinite normal forwards running animate; transform-box: view-box;"><path fill="#333333" d="M60.1 50c0 3.7-2 7-5.1 8.8L65 76c4.4-2.5 8.3-6.2 11-11 2.7-4.7 4-9.9 4-15H60.1z" style="stroke-width: 1;"></path></g></g><metadata xmlns:d="https://loading.io/stock/"></metadata></g></g></svg>