<?xml version="1.0" encoding="UTF-8" standalone="no"?>
<svg
   width="158"
   height="36"
   viewBox="0 0 167.875 29.25"
   aria-hidden="true"
   class="_24ydrq0 _1286nb11m _1286nb12qj"
   version="1.1"
   id="svg1"
   sodipodi:docname="discord.svg"
   xml:space="preserve"
   xmlns:inkscape="http://www.inkscape.org/namespaces/inkscape"
   xmlns:sodipodi="http://sodipodi.sourceforge.net/DTD/sodipodi-0.dtd"
   xmlns="http://www.w3.org/2000/svg"
   xmlns:svg="http://www.w3.org/2000/svg"><defs
     id="defs1" /><sodipodi:namedview
     id="namedview1"
     pagecolor="#ffffff"
     bordercolor="#000000"
     borderopacity="0.25"
     inkscape:showpageshadow="2"
     inkscape:pageopacity="0.0"
     inkscape:pagecheckerboard="0"
     inkscape:deskcolor="#d1d1d1" /><path
     d="M 32.397232,2.5572365 A 31.499708,31.499708 0 0 0 24.508805,0.129509 22.499792,22.499792 0 0 0 23.498564,2.18374 a 29.249729,29.249729 0 0 0 -8.756919,0 22.499792,22.499792 0 0 0 -1.01474,-2.054231 C 11.00218,0.59525469 8.3472047,1.4119971 5.829478,2.5639865 0.83902431,9.952918 -0.51321317,17.157351 0.16178058,24.260536 3.0867534,26.420516 6.3604731,28.063 9.8411909,29.120491 Q 11.01793,27.534255 11.911172,25.777021 A 20.249812,20.249812 0 0 1 8.6487019,24.217786 q 0.4117462,-0.299247 0.8009926,-0.600745 a 22.72479,22.72479 0 0 0 19.3498205,0 q 0.393747,0.323997 0.800993,0.600745 a 20.249812,20.249812 0 0 1 -3.27147,1.561485 q 0.895492,1.759484 2.074481,3.33897 a 31.724706,31.724706 0 0 0 9.68391,-4.855455 C 38.881672,16.027862 36.730692,8.8864279 32.401732,2.5572365 M 12.770664,19.891076 c -1.885483,0 -3.4447183,-1.709984 -3.4447183,-3.815965 0,-2.10598 1.5052363,-3.833964 3.4379683,-3.833964 1.934982,0 3.480717,1.727984 3.449218,3.833964 -0.0315,2.105981 -1.520986,3.815965 -3.442468,3.815965 m 12.707882,0 c -1.889983,0 -3.442468,-1.709984 -3.442468,-3.815965 0,-2.10598 1.505236,-3.833964 3.442468,-3.833964 1.937232,0 3.471718,1.727984 3.437968,3.833964 -0.03375,2.105981 -1.516486,3.815965 -3.437968,3.815965"
     id="path1"
     style="opacity:0.7;fill:#5e6e80;fill-opacity:1;stroke-width:2.24931;stroke-dasharray:none" /><style
     type="text/css"
     data-idx="1"
     id="style1">
  .ld-text text {
    text-anchor: middle;
    dominant-baseline: middle;
    font-size: 19px;
    opacity: 0;
    user-select: none;
    pointer-events: none;
  }
</style><style
     type="text/css"
     data-idx="28"
     id="style14">@keyframes animate-dundl2ugoap { 0.00% {animation-timing-function: cubic-bezier(0.33,0.00,0.67,0.00);transform: translate(0.00px,0.00px) rotate(0.00deg) scale(1.00, 1.00) skew(0deg, 0.00deg) ;opacity: 1.00;}50.00% {animation-timing-function: cubic-bezier(0.33,0.00,0.67,0.00);transform: translate(0.00px,0.00px) rotate(0.00deg) ;}100.00% {animation-timing-function: cubic-bezier(0.33,0.00,0.67,0.00);transform: translate(0.00px,0.00px) rotate(0.00deg) ;} }</style><g
     style="display:block;shape-rendering:auto"
     id="g15"
     transform="matrix(1.0625,0,0,1.0625,43.556202,-2.1154445)"><g
       class="ld-text"
       data-idx="2"
       id="g14"
       style="opacity:0.7;fill:#5e6e80;fill-opacity:1"
       transform="translate(0,-2)"><g
         transform="translate(58,18)"
         data-idx="3"
         id="g13"
         style="fill:#5e6e80;fill-opacity:1"><g
           transform="scale(0.2375)"
           data-idx="4"
           id="g12"
           style="fill:#5e6e80;fill-opacity:1"><g
             class="path"
             style="opacity:1;fill:#5e6e80;fill-opacity:1"
             data-idx="5"
             id="g1"><path
               d="m 24.88,45.37 c 10.16,0 17.68,-5.44 19.36,-13.76 C 44.4,30.81 44,30.33 43.2,30.33 h -7.6 c -0.72,0 -1.04,0.32 -1.28,1.04 -1.12,3.44 -4.8,5.68 -9.44,5.68 -6.96,0 -11.52,-4.8 -11.52,-12.08 0,-7.28 4.56,-12.08 11.52,-12.08 4.64,0 8.32,2.24 9.44,5.68 0.24,0.72 0.56,1.04 1.28,1.04 h 7.6 c 0.8,0 1.2,-0.48 1.04,-1.28 C 42.56,10.01 35.04,4.57 24.88,4.57 12.08,4.57 3.6,12.73 3.6,24.97 c 0,12.24 8.48,20.4 21.28,20.4"
               style="fill:#5e6e80;fill-opacity:1"
               transform="translate(-244.84599,-22.084)"
               data-idx="6"
               id="path1-2" /></g><g
             class="path"
             style="opacity:1;fill:#5e6e80;fill-opacity:1"
             data-idx="7"
             id="g2"><path
               d="m 92.88,5.77 h -7.36 c -0.72,0 -1.2,0.48 -1.2,1.2 V 8.09 C 80.88,5.61 76.96,4.57 73.04,4.57 c -12.4,0 -21.2,8.48 -21.2,20.4 0,11.92 8.8,20.4 21.2,20.4 3.92,0 7.84,-1.04 11.28,-3.52 v 3.04 c 0,6.32 -4.24,10.48 -10.64,10.48 -5.28,0 -9.36,-2.4 -10.48,-6.24 -0.24,-0.72 -0.64,-1.04 -1.36,-1.04 h -7.52 c -0.8,0 -1.28,0.48 -1.12,1.28 1.68,8.72 9.68,14.4 20.48,14.4 12.24,0 20.4,-7.52 20.4,-18.88 V 6.97 c 0,-0.72 -0.48,-1.2 -1.2,-1.2 z m -19.76,31.6 c -6.72,0 -11.52,-5.12 -11.52,-12.4 0,-7.28 4.8,-12.4 11.52,-12.4 6.56,0 11.2,5.12 11.2,12.4 0,7.28 -4.64,12.4 -11.2,12.4"
               style="fill:#5e6e80;fill-opacity:1"
               transform="translate(-244.84599,-22.084)"
               data-idx="8"
               id="path2" /></g><g
             class="path"
             style="opacity:1;fill:#5e6e80;fill-opacity:1"
             data-idx="9"
             id="g3"><path
               d="m 130.16,4.57 c -4.64,0 -9.44,1.52 -13.12,5.04 -1.52,-3.12 -4.8,-5.04 -9.12,-5.04 -1.52,0 -3.36,0.24 -4.88,0.8 -0.72,0.24 -0.96,0.72 -0.96,1.44 v 5.6 c 0,0.8 0.64,1.04 1.44,0.96 0.56,-0.08 1.68,-0.24 2.24,-0.24 2.32,0 3.36,0.96 3.36,2.96 v 45.28 c 0,0.72 0.48,1.2 1.2,1.2 h 7.36 c 0.72,0 1.2,-0.48 1.2,-1.2 V 41.85 c 3.44,2.48 7.36,3.52 11.28,3.52 12.4,0 21.2,-8.48 21.2,-20.4 0,-11.92 -8.8,-20.4 -21.2,-20.4 z m -0.08,32.8 c -6.56,0 -11.2,-5.12 -11.2,-12.4 0,-7.28 4.64,-12.4 11.2,-12.4 6.72,0 11.52,5.12 11.52,12.4 0,7.28 -4.8,12.4 -11.52,12.4"
               style="fill:#5e6e80;fill-opacity:1"
               transform="translate(-244.84599,-22.084)"
               data-idx="10"
               id="path3" /></g><g
             class="path"
             style="opacity:1;fill:#5e6e80;fill-opacity:1"
             data-idx="11"
             id="g4"><path
               d="m 182.8,4.57 c -4.96,0 -9.2,1.28 -12.48,3.52 v -21.92 c 0,-0.72 -0.48,-1.2 -1.2,-1.2 h -7.36 c -0.72,0 -1.2,0.48 -1.2,1.2 v 56.8 c 0,0.72 0.48,1.2 1.2,1.2 h 7.36 c 0.72,0 1.2,-0.48 1.2,-1.2 V 22.73 c 0,-5.84 4.24,-9.76 10.4,-9.76 5.92,0 9.84,4.16 9.84,10.32 v 19.68 c 0,0.72 0.48,1.2 1.2,1.2 h 7.36 c 0.72,0 1.2,-0.48 1.2,-1.2 V 22.73 c 0,-10.88 -7.04,-18.16 -17.52,-18.16"
               style="fill:#5e6e80;fill-opacity:1"
               transform="translate(-244.84599,-22.084)"
               data-idx="12"
               id="path4" /></g><g
             class="path"
             style="opacity:1;fill:#5e6e80;fill-opacity:1"
             data-idx="13"
             id="g5"><path
               d="m 258.8,42.97 -0.64,-5.52 c -0.08,-0.8 -0.64,-1.12 -1.44,-0.96 -1.28,0.24 -2,0.32 -2.96,0.32 -1.68,0 -2.8,-1.2 -2.8,-2.96 V 6.97 c 0,-0.72 -0.48,-1.2 -1.2,-1.2 h -7.36 c -0.72,0 -1.2,0.48 -1.2,1.2 v 1.12 c -3.44,-2.48 -7.36,-3.52 -11.28,-3.52 -12.4,0 -21.2,8.48 -21.2,20.4 0,11.92 8.8,20.4 21.2,20.4 5.12,0 9.28,-1.52 13.2,-4.96 1.52,3.12 4.88,4.96 9.28,4.96 1.76,0 3.44,-0.32 5.44,-0.96 0.72,-0.24 1.04,-0.72 0.96,-1.44 z M 230,37.37 c -6.72,0 -11.52,-5.12 -11.52,-12.4 0,-7.28 4.8,-12.4 11.52,-12.4 6.56,0 11.2,5.12 11.2,12.4 0,7.28 -4.64,12.4 -11.2,12.4"
               style="fill:#5e6e80;fill-opacity:1"
               transform="translate(-244.84599,-22.084)"
               data-idx="14"
               id="path5" /></g><g
             class="path"
             style="opacity:1;fill:#5e6e80;fill-opacity:1"
             data-idx="15"
             id="g6"><path
               d="m 319.28,4.57 c -6.16,0 -11.2,2.16 -14.48,5.84 -2.96,-3.68 -7.36,-5.84 -12.8,-5.84 -5.6,0 -10.32,1.76 -13.52,4.88 -1.52,-3.04 -4.72,-4.88 -9.04,-4.88 -1.52,0 -3.36,0.24 -4.88,0.8 -0.72,0.24 -0.96,0.72 -0.96,1.44 v 5.6 c 0,0.8 0.64,1.04 1.44,0.96 0.56,-0.08 1.68,-0.24 2.24,-0.24 2.32,0 3.36,0.96 3.36,2.96 v 26.88 c 0,0.72 0.48,1.2 1.2,1.2 h 7.36 c 0.72,0 1.2,-0.48 1.2,-1.2 V 22.73 c 0,-5.84 3.84,-9.76 9.52,-9.76 5.44,0 8.96,4.16 8.96,10.32 v 19.68 c 0,0.72 0.48,1.2 1.2,1.2 h 7.36 c 0.72,0 1.2,-0.48 1.2,-1.2 V 22.73 c 0,-5.84 3.44,-9.76 8.56,-9.76 5.92,0 9.84,4.16 9.84,10.32 v 19.68 c 0,0.72 0.48,1.2 1.2,1.2 h 7.36 c 0.72,0 1.2,-0.48 1.2,-1.2 V 22.73 c 0,-10.88 -7.04,-18.16 -17.52,-18.16"
               style="fill:#5e6e80;fill-opacity:1"
               transform="translate(-244.84599,-22.084)"
               data-idx="16"
               id="path6" /></g><g
             class="path"
             style="opacity:1;fill:#5e6e80;fill-opacity:1"
             data-idx="17"
             id="g7"><path
               d="m 362.08,44.17 h 6.72 c 0.64,0 1.12,-0.32 1.36,-0.88 L 387.52,7.21 c 0.4,-0.88 0,-1.44 -0.88,-1.44 h -7.76 c -0.64,0 -1.12,0.32 -1.36,0.88 L 365.44,32.41 353.52,6.65 C 353.28,6.09 352.8,5.77 352.16,5.77 h -7.92 c -0.88,0 -1.28,0.56 -0.88,1.44 l 17.36,36.08 c 0.24,0.56 0.72,0.88 1.36,0.88"
               style="fill:#5e6e80;fill-opacity:1"
               transform="translate(-244.84599,-22.084)"
               data-idx="18"
               id="path7" /></g><g
             class="path"
             style="opacity:1;fill:#5e6e80;fill-opacity:1"
             data-idx="19"
             id="g8"><path
               d="m 399.76,-2.63 c 3.28,0 6.08,-2.48 6.08,-5.6 0,-3.12 -2.8,-5.6 -6.08,-5.6 -3.36,0 -6.08,2.48 -6.08,5.6 0,3.12 2.72,5.6 6.08,5.6"
               style="fill:#5e6e80;fill-opacity:1"
               transform="translate(-244.84599,-22.084)"
               data-idx="20"
               id="path8" /></g><g
             class="path"
             style="opacity:1;fill:#5e6e80;fill-opacity:1"
             data-idx="21"
             id="g9"><path
               d="m 396.08,44.17 h 7.36 c 0.72,0 1.2,-0.48 1.2,-1.2 v -36 c 0,-0.72 -0.48,-1.2 -1.2,-1.2 h -7.36 c -0.72,0 -1.2,0.48 -1.2,1.2 v 36 c 0,0.72 0.48,1.2 1.2,1.2"
               style="fill:#5e6e80;fill-opacity:1"
               transform="translate(-244.84599,-22.084)"
               data-idx="22"
               id="path9" /></g><g
             class="path"
             style="opacity:1;fill:#5e6e80;fill-opacity:1"
             data-idx="23"
             id="g10"><path
               d="m 435.12,45.37 c 8.4,0 15.52,-3.92 18.24,-10 0.4,-0.8 -0.08,-1.36 -0.96,-1.36 h -7.92 c -0.64,0 -1.04,0.24 -1.52,0.72 -1.44,1.68 -4.32,2.8 -7.6,2.8 -5.76,0 -10.24,-3.36 -11.68,-8.64 h 29.52 c 0.72,0 1.2,-0.32 1.36,-1.04 0.08,-1.04 0.16,-2.16 0.16,-3.2 0,-12.08 -8.08,-20.08 -20.16,-20.08 -12.4,0 -20.72,8.16 -20.72,20.4 0,12.24 8.56,20.4 21.28,20.4 z M 423.44,22.01 c 0.8,-5.76 5.36,-9.6 11.36,-9.6 6,0 9.84,4 10,9.6"
               style="fill:#5e6e80;fill-opacity:1"
               transform="translate(-244.84599,-22.084)"
               data-idx="24"
               id="path10" /></g><g
             class="path"
             style="opacity:1;fill:#5e6e80;fill-opacity:1"
             data-idx="25"
             id="g11"><path
               d="m 483.44,45.37 c 2.32,0 5.76,-0.48 8.88,-1.28 0.72,-0.24 1.04,-0.72 0.96,-1.44 l -0.96,-5.6 c -0.16,-0.72 -0.64,-1.12 -1.44,-0.96 -2,0.48 -4.4,0.72 -6.32,0.72 -4.16,0 -6.88,-2.88 -6.88,-7.2 V 13.53 h 13.6 c 0.72,0 1.2,-0.48 1.2,-1.2 V 6.97 c 0,-0.72 -0.48,-1.2 -1.2,-1.2 h -13.6 V -4.87 c 0,-0.72 -0.48,-1.2 -1.2,-1.2 h -7.36 c -0.72,0 -1.2,0.48 -1.2,1.2 V 5.77 h -8 c -0.72,0 -1.2,0.48 -1.2,1.2 v 5.36 c 0,0.72 0.48,1.2 1.2,1.2 h 8 v 16.4 c 0,9.28 6.24,15.44 15.52,15.44"
               style="fill:#5e6e80;fill-opacity:1"
               transform="translate(-244.84599,-22.084)"
               data-idx="26"
               id="path11" /></g></g><text
           dy="0.34999999em"
           fill="#ff708e"
           font-family="'Fontspring-DEMO-nutmeg-regular.otf from Upload'"
           font-size="19"
           data-idx="27"
           style="opacity:0;fill:#5e6e80;fill-opacity:1"
           id="text12">cgphamviet</text></g></g><g
       style="fill:none"
       id="g16"
       transform="translate(-33.327275,-49.430969)" /></g></svg>
