<?xml version="1.0" encoding="UTF-8" standalone="no"?>
<svg
   width="158"
   height="36"
   viewBox="0 0 167.875 29.25"
   aria-hidden="true"
   class="_24ydrq0 _1286nb11m _1286nb12qj"
   version="1.1"
   id="svg1"
   sodipodi:docname="discord.svg"
   xml:space="preserve"
   inkscape:export-filename="discord-cgphamviet.svg"
   inkscape:export-xdpi="96"
   inkscape:export-ydpi="96"
   xmlns:inkscape="http://www.inkscape.org/namespaces/inkscape"
   xmlns:sodipodi="http://sodipodi.sourceforge.net/DTD/sodipodi-0.dtd"
   xmlns="http://www.w3.org/2000/svg"
   xmlns:svg="http://www.w3.org/2000/svg"><defs
     id="defs1" /><sodipodi:namedview
     id="namedview1"
     pagecolor="#ffffff"
     bordercolor="#000000"
     borderopacity="0.25"
     inkscape:showpageshadow="2"
     inkscape:pageopacity="0.0"
     inkscape:pagecheckerboard="0"
     inkscape:deskcolor="#d1d1d1" /><path
     d="M 32.397232,2.5572365 A 31.499708,31.499708 0 0 0 24.508805,0.129509 22.499792,22.499792 0 0 0 23.498564,2.18374 a 29.249729,29.249729 0 0 0 -8.756919,0 22.499792,22.499792 0 0 0 -1.01474,-2.054231 C 11.00218,0.59525469 8.3472047,1.4119971 5.829478,2.5639865 0.83902431,9.952918 -0.51321317,17.157351 0.16178058,24.260536 3.0867534,26.420516 6.3604731,28.063 9.8411909,29.120491 Q 11.01793,27.534255 11.911172,25.777021 A 20.249812,20.249812 0 0 1 8.6487019,24.217786 q 0.4117462,-0.299247 0.8009926,-0.600745 a 22.72479,22.72479 0 0 0 19.3498205,0 q 0.393747,0.323997 0.800993,0.600745 a 20.249812,20.249812 0 0 1 -3.27147,1.561485 q 0.895492,1.759484 2.074481,3.33897 a 31.724706,31.724706 0 0 0 9.68391,-4.855455 C 38.881672,16.027862 36.730692,8.8864279 32.401732,2.5572365 M 12.770664,19.891076 c -1.885483,0 -3.4447183,-1.709984 -3.4447183,-3.815965 0,-2.10598 1.5052363,-3.833964 3.4379683,-3.833964 1.934982,0 3.480717,1.727984 3.449218,3.833964 -0.0315,2.105981 -1.520986,3.815965 -3.442468,3.815965 m 12.707882,0 c -1.889983,0 -3.442468,-1.709984 -3.442468,-3.815965 0,-2.10598 1.505236,-3.833964 3.442468,-3.833964 1.937232,0 3.471718,1.727984 3.437968,3.833964 -0.03375,2.105981 -1.516486,3.815965 -3.437968,3.815965"
     id="path1"
     style="opacity:0.7;fill:#5e6e80;fill-opacity:1;stroke-width:2.24931;stroke-dasharray:none" /><style
     type="text/css"
     data-idx="1"
     id="style1">
  .ld-text text {
    text-anchor: middle;
    dominant-baseline: middle;
    font-size: 19px;
    opacity: 0;
    user-select: none;
    pointer-events: none;
  }
</style><style
     type="text/css"
     data-idx="28"
     id="style14">@keyframes animate-dundl2ugoap { 0.00% {animation-timing-function: cubic-bezier(0.33,0.00,0.67,0.00);transform: translate(0.00px,0.00px) rotate(0.00deg) scale(1.00, 1.00) skew(0deg, 0.00deg) ;opacity: 1.00;}50.00% {animation-timing-function: cubic-bezier(0.33,0.00,0.67,0.00);transform: translate(0.00px,0.00px) rotate(0.00deg) ;}100.00% {animation-timing-function: cubic-bezier(0.33,0.00,0.67,0.00);transform: translate(0.00px,0.00px) rotate(0.00deg) ;} }</style><g
     style="display:block;mix-blend-mode:normal;shape-rendering:auto"
     id="g15"
     transform="matrix(1.0625,0,0,1.0625,43.556202,-2.1154445)"><g
       style="fill:none"
       id="g16"
       transform="translate(-33.327275,-49.430969)" /><g
       style="display:inline;shape-rendering:auto"
       id="g17"
       transform="translate(-43.40376,-36.192958)"><g
         class="ld-text"
         data-idx="2"
         id="g14"
         transform="translate(45.726392,37.022206)"
         style="display:inline"><g
           transform="translate(58,18)"
           data-idx="3"
           id="g13"
           style="display:inline"><g
             transform="matrix(0.22499999,0,0,0.22499999,0,-3.6571855)"
             data-idx="4"
             id="g12"><g
               class="path"
               style="opacity:1"
               data-idx="5"
               id="g1"><path
                 d="m 25.12,45.75 c 10.64,0 18.48,-5.68 20.16,-14.48 0.16,-0.96 -0.4,-1.6 -1.36,-1.6 h -8.56 c -0.88,0 -1.28,0.48 -1.68,1.28 -1.12,3.2 -4.4,5.12 -8.56,5.12 -6.32,0 -10.48,-4.32 -10.48,-10.96 0,-6.64 4.16,-11.04 10.48,-11.04 4.16,0 7.44,2 8.56,5.12 0.4,0.88 0.8,1.28 1.68,1.28 h 8.56 c 0.96,0 1.52,-0.56 1.36,-1.6 C 43.6,10.07 35.76,4.39 25.12,4.39 c -13.2,0 -22,8.24 -22,20.72 0,12.4 8.8,20.64 22,20.64"
                 style="opacity:0.7;fill:#5e6e80;fill-opacity:1"
                 transform="translate(-248.806,-22.236)"
                 data-idx="6"
                 id="path1-2" /></g><g
               class="path"
               style="opacity:1"
               data-idx="7"
               id="g2"><path
                 d="m 94.56,5.67 h -8.8 c -0.96,0 -1.52,0.56 -1.52,1.52 V 8.07 C 81.04,5.59 77.12,4.39 72.88,4.39 c -12.32,0 -21.04,8.56 -21.04,20.56 0,12.08 8.72,20.64 21.04,20.64 4,0 7.92,-1.04 11.12,-3.44 v 3.36 c 0,5.52 -3.68,9.12 -9.44,9.12 -4.64,0 -8.16,-2 -9.2,-5.2 -0.4,-0.8 -0.88,-1.2 -1.76,-1.2 h -8.96 c -1.04,0 -1.68,0.56 -1.44,1.52 1.6,8.88 9.92,14.64 21.44,14.64 12.8,0 21.44,-7.6 21.44,-18.96 V 7.19 c 0,-0.96 -0.64,-1.52 -1.52,-1.52 z M 73.92,36.15 c -6,0 -10.32,-4.56 -10.32,-11.2 0,-6.56 4.32,-11.2 10.32,-11.2 5.92,0 10.08,4.64 10.08,11.2 0,6.64 -4.16,11.2 -10.08,11.2"
                 style="opacity:0.7;fill:#5e6e80;fill-opacity:1"
                 transform="translate(-248.806,-22.236)"
                 data-idx="8"
                 id="path2" /></g><g
               class="path"
               style="opacity:1"
               data-idx="9"
               id="g3"><path
                 d="m 132.8,4.39 c -4.88,0 -9.6,1.68 -13.12,5.12 -1.6,-3.12 -5.12,-5.12 -9.68,-5.12 -1.84,0 -3.92,0.24 -5.76,0.96 -0.88,0.32 -1.2,0.8 -1.2,1.76 v 6.56 c 0,1.04 0.72,1.28 1.76,1.28 0.48,-0.08 1.28,-0.24 1.76,-0.24 2.24,0 3.12,0.96 3.12,3.12 v 43.76 c 0,0.88 0.56,1.44 1.52,1.44 h 8.96 c 0.96,0 1.52,-0.56 1.52,-1.44 V 42.31 c 3.28,2.4 7.12,3.44 11.12,3.44 12.48,0 21.12,-8.48 21.12,-20.64 0,-12.24 -8.64,-20.72 -21.12,-20.72 z m -0.96,32 c -6,0 -10.16,-4.64 -10.16,-11.28 0,-6.72 4.16,-11.36 10.16,-11.36 6,0 10.32,4.64 10.32,11.36 0,6.64 -4.32,11.28 -10.32,11.28"
                 style="opacity:0.7;fill:#5e6e80;fill-opacity:1"
                 transform="translate(-248.806,-22.236)"
                 data-idx="10"
                 id="path3" /></g><g
               class="path"
               style="opacity:1"
               data-idx="11"
               id="g4"><path
                 d="m 186.08,4.39 c -4.72,0 -8.8,1.28 -12,3.44 v -21.04 c 0,-0.96 -0.56,-1.52 -1.52,-1.52 h -8.96 c -0.96,0 -1.52,0.56 -1.52,1.52 v 56.16 c 0,0.96 0.56,1.52 1.52,1.52 h 8.96 c 0.96,0 1.52,-0.56 1.52,-1.52 V 23.27 c 0,-5.28 3.52,-8.64 8.88,-8.64 5.12,0 8.4,3.6 8.4,9.04 v 19.28 c 0,0.96 0.64,1.52 1.6,1.52 h 8.96 c 0.96,0 1.52,-0.56 1.52,-1.52 V 22.07 c 0,-10.64 -6.96,-17.68 -17.36,-17.68"
                 style="opacity:0.7;fill:#5e6e80;fill-opacity:1"
                 transform="translate(-248.806,-22.236)"
                 data-idx="12"
                 id="path4" /></g><g
               class="path"
               style="opacity:1"
               data-idx="13"
               id="g5"><path
                 d="m 262.72,43.11 -0.8,-6.64 c -0.08,-1.04 -0.72,-1.36 -1.68,-1.28 -1.04,0.24 -1.68,0.24 -2.48,0.24 -1.68,0 -2.64,-1.04 -2.64,-3.12 V 7.19 c 0,-0.96 -0.56,-1.52 -1.52,-1.52 h -8.8 c -0.96,0 -1.52,0.56 -1.52,1.52 v 0.88 c -3.2,-2.48 -7.12,-3.68 -11.36,-3.68 -12.4,0 -21.04,8.48 -21.04,20.72 0,12.16 8.64,20.64 21.04,20.64 5.2,0 9.68,-1.6 13.44,-4.88 1.68,3.04 5.2,4.88 10.08,4.88 1.92,0 3.84,-0.32 6,-0.96 0.96,-0.24 1.36,-0.8 1.28,-1.68 z m -29.76,-6.72 c -6.08,0 -10.32,-4.64 -10.32,-11.28 0,-6.72 4.24,-11.36 10.32,-11.36 6,0 10.08,4.64 10.08,11.36 0,6.64 -4.08,11.28 -10.08,11.28"
                 style="opacity:0.7;fill:#5e6e80;fill-opacity:1"
                 transform="translate(-248.806,-22.236)"
                 data-idx="14"
                 id="path5" /></g><g
               class="path"
               style="opacity:1"
               data-idx="15"
               id="g6"><path
                 d="m 323.36,4.39 c -5.92,0 -10.88,2.08 -14,5.68 -2.88,-3.6 -7.2,-5.68 -12.64,-5.68 -5.68,0 -10.48,1.76 -13.6,4.88 -1.6,-3.04 -4.96,-4.88 -9.44,-4.88 -1.84,0 -3.92,0.24 -5.76,0.96 -0.88,0.32 -1.2,0.8 -1.2,1.76 v 6.56 c 0,1.04 0.72,1.28 1.76,1.28 0.48,-0.08 1.28,-0.24 1.76,-0.24 2.24,0 3.12,0.96 3.12,3.12 v 25.12 c 0,0.96 0.56,1.52 1.52,1.52 h 8.96 c 0.96,0 1.52,-0.56 1.52,-1.52 V 23.27 c 0,-5.28 3.2,-8.64 8.08,-8.64 4.64,0 7.6,3.6 7.6,9.04 v 19.28 c 0,0.96 0.64,1.52 1.52,1.52 h 9.04 c 0.88,0 1.52,-0.56 1.52,-1.52 V 23.27 c 0,-5.28 2.88,-8.64 7.28,-8.64 5.04,0 8.24,3.6 8.24,9.04 v 19.28 c 0,0.96 0.64,1.52 1.52,1.52 h 8.96 c 0.96,0 1.6,-0.56 1.6,-1.52 V 22.07 c 0,-10.64 -6.96,-17.68 -17.36,-17.68"
                 style="opacity:0.7;fill:#5e6e80;fill-opacity:1"
                 transform="translate(-248.806,-22.236)"
                 data-idx="16"
                 id="path6" /></g><g
               class="path"
               style="opacity:1"
               data-idx="17"
               id="g7"><path
                 d="m 364.8,44.47 h 8.96 c 0.8,0 1.36,-0.4 1.68,-1.12 L 392.16,7.43 c 0.48,-1.04 -0.08,-1.76 -1.2,-1.76 h -9.44 c -0.8,0 -1.36,0.4 -1.68,1.12 l -10.56,23.2 -10.4,-23.2 C 358.56,6.07 358,5.67 357.12,5.67 h -9.52 c -1.12,0 -1.6,0.72 -1.2,1.76 l 16.72,35.92 c 0.32,0.72 0.88,1.12 1.68,1.12"
                 style="opacity:0.7;fill:#5e6e80;fill-opacity:1"
                 transform="translate(-248.806,-22.236)"
                 data-idx="18"
                 id="path7" /></g><g
               class="path"
               style="opacity:1"
               data-idx="19"
               id="g8"><path
                 d="m 404.56,-1.45 c 4,0 7.12,-2.88 7.12,-6.64 0,-3.76 -3.12,-6.56 -7.12,-6.56 -4,0 -7.12,2.8 -7.12,6.56 0,3.76 3.12,6.64 7.12,6.64"
                 style="opacity:0.7;fill:#5e6e80;fill-opacity:1"
                 transform="translate(-248.806,-22.236)"
                 data-idx="20"
                 id="path8" /></g><g
               class="path"
               style="opacity:1"
               data-idx="21"
               id="g9"><path
                 d="m 400.08,44.47 h 8.96 c 0.96,0 1.52,-0.56 1.52,-1.52 V 7.19 c 0,-0.96 -0.56,-1.52 -1.52,-1.52 h -8.96 c -0.96,0 -1.52,0.56 -1.52,1.52 v 35.76 c 0,0.96 0.56,1.52 1.52,1.52"
                 style="opacity:0.7;fill:#5e6e80;fill-opacity:1"
                 transform="translate(-248.806,-22.236)"
                 data-idx="22"
                 id="path9" /></g><g
               class="path"
               style="opacity:1"
               data-idx="23"
               id="g10"><path
                 d="m 440.64,45.75 c 9.04,0 16.24,-4.08 18.96,-10.72 0.4,-0.96 -0.16,-1.6 -1.28,-1.6 h -8.96 c -0.8,0 -1.28,0.32 -1.92,0.8 -1.36,1.52 -3.76,2.4 -6.56,2.4 -5.28,0 -9.28,-2.96 -10.56,-7.76 h 28.72 c 0.88,0 1.52,-0.4 1.68,-1.36 0,-0.88 0.08,-1.84 0.08,-2.72 0,-12.16 -7.92,-20.4 -20.88,-20.4 -12.72,0 -21.28,8.24 -21.28,20.72 0,12.4 8.88,20.64 22,20.64 z m -10.4,-24 c 0.72,-5.04 4.72,-8.48 10,-8.48 5.36,0 8.88,3.52 9.12,8.48"
                 style="opacity:0.7;fill:#5e6e80;fill-opacity:1"
                 transform="translate(-248.806,-22.236)"
                 data-idx="24"
                 id="path10" /></g><g
               class="path"
               style="opacity:1"
               data-idx="25"
               id="g11"><path
                 d="m 490.16,45.75 c 2.48,0 6.16,-0.48 9.36,-1.28 0.96,-0.32 1.28,-0.88 1.2,-1.76 l -1.04,-6.88 c -0.16,-0.88 -0.8,-1.36 -1.76,-1.2 -1.92,0.48 -4.24,0.72 -6,0.72 -4,0 -6.64,-2.48 -6.64,-6.56 V 15.35 h 12.56 c 0.88,0 1.52,-0.56 1.52,-1.52 V 7.19 c 0,-0.96 -0.64,-1.52 -1.52,-1.52 H 485.28 V -4.49 c 0,-0.96 -0.56,-1.52 -1.52,-1.52 h -8.96 c -0.96,0 -1.52,0.56 -1.52,1.52 V 5.67 h -7.36 c -0.96,0 -1.52,0.56 -1.52,1.52 v 6.64 c 0,0.96 0.56,1.52 1.52,1.52 h 7.36 v 13.84 c 0,10.24 6.48,16.56 16.88,16.56"
                 style="opacity:0.7;fill:#5e6e80;fill-opacity:1"
                 transform="translate(-248.806,-22.236)"
                 data-idx="26"
                 id="path11" /></g></g></g></g></g></g><style
     type="text/css"
     data-idx="1"
     id="style1-3">
  .ld-text text {
    text-anchor: middle;
    dominant-baseline: middle;
    font-size: 18px;
    opacity: 0;
    user-select: none;
    pointer-events: none;
  }
</style><style
     type="text/css"
     data-idx="28"
     id="style14-6">@keyframes animate-dundl2ugoap { 0.00% {animation-timing-function: cubic-bezier(0.33,0.00,0.67,0.00);transform: translate(0.00px,0.00px) rotate(0.00deg) scale(1.00, 1.00) skew(0deg, 0.00deg) ;opacity: 1.00;}50.00% {animation-timing-function: cubic-bezier(0.33,0.00,0.67,0.00);transform: translate(0.00px,0.00px) rotate(0.00deg) ;}100.00% {animation-timing-function: cubic-bezier(0.33,0.00,0.67,0.00);transform: translate(0.00px,0.00px) rotate(0.00deg) ;} }</style></svg>
