<?xml version="1.0" encoding="UTF-8" standalone="no"?>
<svg
   viewBox="0 0 5056 1152"
   width="158"
   height="36"
   aria-hidden="true"
   class="_24ydrq0 _1286nb11m _1286nb12qp"
   version="1.1"
   id="svg1"
   sodipodi:docname="pinest.svg"
   xml:space="preserve"
   inkscape:export-filename="pinest-link.svg"
   inkscape:export-xdpi="96"
   inkscape:export-ydpi="96"
   xmlns:inkscape="http://www.inkscape.org/namespaces/inkscape"
   xmlns:sodipodi="http://sodipodi.sourceforge.net/DTD/sodipodi-0.dtd"
   xmlns="http://www.w3.org/2000/svg"
   xmlns:svg="http://www.w3.org/2000/svg"><defs
     id="defs1" /><sodipodi:namedview
     id="namedview1"
     pagecolor="#ffffff"
     bordercolor="#000000"
     borderopacity="0.25"
     inkscape:showpageshadow="2"
     inkscape:pageopacity="0.0"
     inkscape:pagecheckerboard="0"
     inkscape:deskcolor="#d1d1d1" /><path
     d="M 575.53056,0 C 257.72127,0 0,257.72127 0,575.53056 c 0,243.87286 151.62836,452.30314 365.69193,536.33254 -5.16381,-45.5355 -9.38875,-115.4817 1.87775,-165.24207 10.32763,-45.06602 67.36431,-286.12225 67.36431,-286.12225 0,0 -17.13448,-34.50367 -17.13448,-85.20294 0,-80.03912 46.47433,-139.6577 104.21516,-139.6577 49.29095,0 72.99755,36.85086 72.99755,80.978 0,49.29095 -31.2176,123.22738 -47.88264,191.76528 -13.84841,57.27139 28.87042,104.21516 85.20294,104.21516 102.33741,0 180.96821,-107.97066 180.96821,-263.35453 0,-137.77995 -99.05134,-234.01467 -240.58679,-234.01467 -163.83374,0 -260.06846,122.75795 -260.06846,249.74084 0,49.29095 19.01222,102.3374 42.71882,131.20782 4.69438,5.63325 5.16382,10.79707 3.7555,16.66504 -4.22493,18.07335 -14.31784,57.27139 -16.19559,65.48655 -2.34719,10.32763 -8.44988,12.67481 -19.48167,7.511 C 251.61858,751.8044 206.55257,647.1198 206.55257,562.15159 c 0,-181.43765 131.67726,-348.08802 380.47921,-348.08802 199.51101,0 354.89487,142.00489 354.89487,332.59658 0,198.57212 -125.10513,358.18093 -298.32763,358.18093 -58.21027,0 -113.13447,-30.27873 -131.67726,-66.42543 0,0 -28.87042,109.84841 -35.91198,136.84107 -12.67482,50.22988 -47.88264,112.66508 -71.58924,151.15888 C 458.40587,1143.0807 515.20782,1152 575.06112,1152 892.87042,1152 1150.5917,894.27873 1150.5917,576.46944 1151.0611,257.72127 893.33985,0 575.53056,0"
     id="path1"
     style="opacity:0.75;fill:#808080;stroke-width:2.34719" /><style
     type="text/css"
     data-idx="1"
     id="style1">
  .ld-text text {
    text-anchor: middle;
    dominant-baseline: middle;
    font-size: 21px;
    opacity: 0;
    user-select: none;
    pointer-events: none;
  }
</style><style
     type="text/css"
     data-idx="28"
     id="style14">@keyframes animate-dundl2ugoap { 0.00% {animation-timing-function: cubic-bezier(0.33,0.00,0.67,0.00);transform: translate(0.00px,0.00px) rotate(0.00deg) scale(1.00, 1.00) skew(0deg, 0.00deg) ;opacity: 1.00;}50.00% {animation-timing-function: cubic-bezier(0.33,0.00,0.67,0.00);transform: translate(0.00px,0.00px) rotate(0.00deg) ;}100.00% {animation-timing-function: cubic-bezier(0.33,0.00,0.67,0.00);transform: translate(0.00px,0.00px) rotate(0.00deg) ;} }</style><g
     style="display:block;opacity:0.75;shape-rendering:auto"
     id="g15"
     transform="matrix(32,0,0,32,1258.4844,18.7453)"><g
       class="ld-text"
       data-idx="2"
       id="g14"
       transform="translate(2)"><g
         transform="translate(58,18)"
         data-idx="3"
         id="g13"><g
           transform="scale(0.26249999)"
           data-idx="4"
           id="g12"><g
             class="path"
             style="opacity:1"
             data-idx="5"
             id="g1"><path
               d="m 23.6,46.45 c 7.84,0 14.64,-4.08 18.08,-10.32 l -10.48,-6 c -1.28,2.8 -4.24,4.48 -7.76,4.48 -5.2,0 -9.04,-3.76 -9.04,-9.28 0,-5.52 3.84,-9.28 9.04,-9.28 3.52,0 6.4,1.68 7.76,4.48 L 41.68,14.45 C 38.24,8.29 31.36,4.21 23.6,4.21 c -12.16,0 -21.2,9.2 -21.2,21.12 0,11.92 9.04,21.12 21.2,21.12"
               style="fill:#ff708e"
               transform="translate(-219.75999,-22.663)"
               data-idx="6"
               id="path1-5" /></g><g
             class="path"
             style="opacity:1"
             data-idx="7"
             id="g2"><path
               d="M 75.04,5.33 V 9.41 C 72.4,6.13 68.56,4.21 63.36,4.21 52,4.21 43.68,13.49 43.68,24.53 c 0,11.04 8.32,20.32 19.68,20.32 5.2,0 9.04,-1.92 11.68,-5.2 v 3.68 c 0,5.68 -3.44,8.56 -9.04,8.56 -5.28,0 -7.6,-2.24 -9.12,-5.04 l -10.24,5.92 c 3.68,6.56 10.64,9.68 18.96,9.68 10.64,0 21.12,-5.68 21.12,-19.12 v -38 z m -9.68,28.48 c -5.68,0 -9.68,-3.76 -9.68,-9.28 0,-5.52 4,-9.28 9.68,-9.28 5.68,0 9.68,3.76 9.68,9.28 0,5.52 -4,9.28 -9.68,9.28"
               style="fill:#ff708e"
               transform="translate(-219.75999,-22.663)"
               data-idx="8"
               id="path2" /></g><g
             class="path"
             style="opacity:1"
             data-idx="9"
             id="g3"><path
               d="m 119.44,4.21 c -5.36,0 -9.28,1.84 -11.92,4.88 V 5.33 h -12 v 56 h 12 V 41.57 c 2.64,3.04 6.56,4.88 11.92,4.88 10.48,0 19.12,-9.2 19.12,-21.12 0,-11.92 -8.64,-21.12 -19.12,-21.12 z m -2.4,30.88 c -5.52,0 -9.52,-3.76 -9.52,-9.76 0,-6 4,-9.76 9.52,-9.76 5.52,0 9.52,3.76 9.52,9.76 0,6 -4,9.76 -9.52,9.76"
               style="fill:#ff708e"
               transform="translate(-219.75999,-22.663)"
               data-idx="10"
               id="path3" /></g><g
             class="path"
             style="opacity:1"
             data-idx="11"
             id="g4"><path
               d="m 168.8,4.21 c -5.28,0 -9.28,1.92 -11.44,4.88 v -19.76 h -12 v 56 h 12 V 23.49 c 0,-5.68 3.04,-8.24 7.44,-8.24 3.84,0 6.96,2.32 6.96,7.28 v 22.8 h 12 V 20.77 c 0,-10.8 -6.88,-16.56 -14.96,-16.56"
               style="fill:#ff708e"
               transform="translate(-219.75999,-22.663)"
               data-idx="12"
               id="path4" /></g><g
             class="path"
             style="opacity:1"
             data-idx="13"
             id="g5"><path
               d="M 221.04,5.33 V 9.09 C 218.4,6.05 214.48,4.21 209.12,4.21 198.64,4.21 190,13.41 190,25.33 c 0,11.92 8.64,21.12 19.12,21.12 5.36,0 9.28,-1.84 11.92,-4.88 v 3.76 h 12 v -40 z m -9.52,29.76 c -5.52,0 -9.52,-3.76 -9.52,-9.76 0,-6 4,-9.76 9.52,-9.76 5.52,0 9.52,3.76 9.52,9.76 0,6 -4,9.76 -9.52,9.76"
               style="fill:#ff708e"
               transform="translate(-219.75999,-22.663)"
               data-idx="14"
               id="path5" /></g><g
             class="path"
             style="opacity:1"
             data-idx="15"
             id="g6"><path
               d="m 286.64,4.21 c -5.68,0 -9.36,2.08 -11.6,5.28 -2.24,-3.36 -5.76,-5.28 -10.48,-5.28 -5.36,0 -8.88,2.08 -10.72,4.8 V 5.33 h -12 v 40 h 12 V 22.77 c 0,-4.72 2.24,-7.52 6.24,-7.52 3.84,0 5.76,2.56 5.76,6.56 v 23.52 h 12 V 22.77 c 0,-4.72 2.24,-7.52 6.24,-7.52 3.84,0 5.76,2.56 5.76,6.56 v 23.52 h 12 V 20.77 c 0,-10 -6,-16.56 -15.2,-16.56"
               style="fill:#ff708e"
               transform="translate(-219.75999,-22.663)"
               data-idx="16"
               id="path6" /></g><g
             class="path"
             style="opacity:1"
             data-idx="17"
             id="g7"><path
               d="m 334.8,5.33 -8.32,25.36 -8.32,-25.36 h -13.28 l 14.8,40 h 13.6 l 14.8,-40"
               style="fill:#ff708e"
               transform="translate(-219.75999,-22.663)"
               data-idx="18"
               id="path7" /></g><g
             class="path"
             style="opacity:1"
             data-idx="19"
             id="g8"><path
               d="m 358.48,1.81 c 3.92,0 7.2,-3.28 7.2,-7.2 0,-3.92 -3.28,-7.2 -7.2,-7.2 -3.92,0 -7.2,3.28 -7.2,7.2 0,3.92 3.28,7.2 7.2,7.2"
               style="fill:#ff708e"
               transform="translate(-219.75999,-22.663)"
               data-idx="20"
               id="path8" /></g><g
             class="path"
             style="opacity:1"
             data-idx="21"
             id="g9"><path
               d="m 352.48,45.33 h 12 v -40 h -12"
               style="fill:#ff708e"
               transform="translate(-219.75999,-22.663)"
               data-idx="22"
               id="path9" /></g><g
             class="path"
             style="opacity:1"
             data-idx="23"
             id="g10"><path
               d="m 384,30.13 h 28.4 c 0.32,-1.52 0.48,-3.12 0.48,-4.8 0,-12.08 -8.64,-21.12 -20.32,-21.12 -12.64,0 -21.28,9.2 -21.28,21.12 0,11.92 8.48,21.12 22.16,21.12 7.6,0 13.52,-2.8 17.44,-8.24 l -9.6,-5.52 c -1.6,1.76 -4.4,3.04 -7.68,3.04 -4.4,0 -8.08,-1.44 -9.6,-5.6 z m -0.24,-8.96 c 1.12,-4.08 4.16,-6.32 8.72,-6.32 3.6,0 7.2,1.68 8.48,6.32"
               style="fill:#ff708e"
               transform="translate(-219.75999,-22.663)"
               data-idx="24"
               id="path10" /></g><g
             class="path"
             style="opacity:1"
             data-idx="25"
             id="g11"><path
               d="M 441.92,16.85 V 5.33 h -8.24 v -11.2 l -12,3.6 v 7.6 h -6.4 v 11.52 h 6.4 v 14.16 c 0,11.2 4.56,15.92 20.24,14.32 V 34.45 c -5.28,0.32 -8.24,0 -8.24,-3.44 V 16.85"
               style="fill:#ff708e"
               transform="translate(-219.75999,-22.663)"
               data-idx="26"
               id="path11" /></g></g><text
           dy="0.34999999em"
           fill="#ff708e"
           font-family="'Gilroy-ExtraBold.otf from Upload'"
           font-size="21"
           data-idx="27"
           style="opacity:0"
           id="text12">cgphamviet</text></g></g></g></svg>
