<?xml version="1.0" encoding="utf-8"?>
<svg viewBox="0 0 158 36" fill="none" style="shape-rendering: auto;" xmlns="http://www.w3.org/2000/svg">
  <path d="M 27.317 7.699 C 27.074 7.573 26.838 7.436 26.608 7.286 C 25.942 6.845 25.33 6.327 24.788 5.74 C 23.431 4.187 22.923 2.612 22.736 1.508 L 22.743 1.508 C 22.588 0.592 22.653 0 22.662 0 L 16.479 0 L 16.479 23.908 C 16.479 24.228 16.479 24.545 16.466 24.86 C 16.466 24.898 16.461 24.935 16.459 24.977 C 16.459 24.993 16.459 25.011 16.456 25.029 C 16.456 25.034 16.456 25.038 16.456 25.043 C 16.324 26.786 15.332 28.346 13.815 29.21 C 13.034 29.653 12.154 29.885 11.255 29.884 C 8.375 29.884 6.041 27.536 6.041 24.635 C 6.041 21.733 8.375 19.384 11.255 19.384 C 11.801 19.384 12.344 19.471 12.863 19.64 L 12.87 13.343 C 9.688 12.933 6.478 13.873 4.019 15.934 C 2.956 16.859 2.059 17.964 1.372 19.197 C 1.111 19.647 0.126 21.456 0.007 24.39 C -0.067 26.057 0.432 27.781 0.671 28.496 L 0.671 28.51 C 0.821 28.93 1.402 30.364 2.349 31.572 C 3.114 32.54 4.016 33.392 5.027 34.099 L 5.027 34.083 L 5.042 34.099 C 8.037 36.133 11.354 35.998 11.354 35.998 C 11.93 35.975 13.855 35.998 16.038 34.963 C 18.463 33.815 19.843 32.105 19.843 32.105 C 20.723 31.082 21.425 29.918 21.917 28.66 C 22.475 27.189 22.662 25.425 22.662 24.719 L 22.662 12.037 C 22.736 12.082 23.737 12.742 23.737 12.742 C 23.737 12.742 25.175 13.664 27.421 14.265 C 29.032 14.693 31.201 14.783 31.201 14.783 L 31.201 8.645 C 30.442 8.728 28.897 8.487 27.317 7.699 Z" style="fill: rgb(142, 153, 166);" transform="matrix(1, 0, 0, 1, 2.842170943040401e-14, 0)"/>
  <g style="transform-origin: 58px 18px;" class="ld-text" data-idx="2" transform="matrix(1, 0, 0, 1, 42.448998762637, -0.207500002012)">
    <g transform="matrix(1,0,0,1,58,18)" data-idx="3">
      <g transform="matrix(0.23749999701976776,0,0,0.23749999701976776,0,0)" data-idx="4">
        <g class="path" style="opacity: 1; animation: 100s linear -73.52s infinite normal forwards paused animate-jt272ipvwkc; transform-box: view-box; transform-origin: -217px 2.6px; transform: matrix(1, 0, 0, 1, 0, 0);" data-idx="5">
          <path d="M24.40 46.41C32.40 46.33 39.76 42.73 43.44 34.49L31.52 28.09C30.24 30.81 27.68 32.89 24.40 32.89C19.84 32.89 16.80 29.45 16.80 25.21C16.80 20.97 19.84 17.61 24.40 17.61C27.68 17.61 30.24 19.69 31.52 22.41L43.44 16.01C39.76 7.77 32.40 4.17 24.40 4.09C11.92 3.93 2.40 13.61 2.40 25.21C2.40 36.81 11.92 46.57 24.40 46.41" style="fill: rgb(142, 153, 166);" transform="matrix(1,0,0,1,-239.9199981689453,-22.64699935913086)" data-idx="6"/>
        </g>
        <g class="path" style="opacity: 1; animation: 100s linear -67.52s infinite normal forwards paused animate-jt272ipvwkc; transform-box: view-box; transform-origin: -170.48px 11.84px; transform: matrix(1, 0, 0, 1, 0, 0);" data-idx="7">
          <path d="M68.24 64.89C81.44 64.89 91.44 55.45 91.44 41.05L91.44 25.21C91.44 12.97 82.24 4.09 69.44 4.09C56.96 4.09 47.44 13.53 47.44 25.13C47.44 37.13 56.40 45.69 67.52 45.69C72.08 45.69 75.12 44.41 77.04 42.73C76.64 48.49 73.20 51.77 68 51.77C63.04 51.77 60.64 48.97 59.36 46.25L47.44 52.65C51.12 60.49 58.32 64.89 68.24 64.89 zM69.20 32.17C64.96 32.17 61.60 29.21 61.60 24.81C61.60 20.49 64.96 17.61 69.20 17.61C73.52 17.61 76.80 20.49 76.80 24.81C76.80 29.21 73.52 32.17 69.20 32.17" style="fill: rgb(142, 153, 166);" transform="matrix(1,0,0,1,-239.9199981689453,-22.64699935913086)" data-idx="8"/>
        </g>
        <g class="path" style="opacity: 1; animation: 100s linear -61.52s infinite normal forwards paused animate-jt272ipvwkc; transform-box: view-box; transform-origin: -118.48px 11.24px; transform: matrix(1, 0, 0, 1, 0, 0);" data-idx="9">
          <path d="M113.84 63.69L113.84 44.25C116.32 45.61 119.28 46.49 122.24 46.49C134.96 46.49 143.44 38.01 143.44 25.21C143.44 13.61 133.92 4.09 121.44 4.09C108.64 4.09 99.44 12.97 99.44 25.21L99.44 63.69 zM121.44 32.97C116.88 32.97 113.84 29.45 113.84 25.29C113.84 21.05 116.88 17.61 121.44 17.61C126 17.61 129.04 21.05 129.04 25.29C129.04 29.45 126 32.97 121.44 32.97" style="fill: rgb(142, 153, 166);" transform="matrix(1,0,0,1,-239.9199981689453,-22.64699935913086)" data-idx="10"/>
        </g>
        <g class="path" style="opacity: 1; animation: 100s linear -55.52s infinite normal forwards paused animate-jt272ipvwkc; transform-box: view-box; transform-origin: -67.08px -6.56px; transform: matrix(1, 0, 0, 1, 0, 0);" data-idx="11">
          <path d="M165.84 45.29L165.84 26.09C165.84 21.13 168.56 17.61 173.12 17.61C177.44 17.61 179.84 21.61 179.84 26.09L179.84 45.21L194.24 45.29L194.24 24.57C194.24 11.69 188 4.09 175.44 4.09C171.84 4.09 168.56 4.97 165.84 6.49L165.84-13.11L151.44-13.11L151.44 45.29" style="fill: rgb(142, 153, 166);" transform="matrix(1,0,0,1,-239.9199981689453,-22.64699935913086)" data-idx="12"/>
        </g>
        <g class="path" style="opacity: 1; animation: 100s linear -49.52s infinite normal forwards paused animate-jt272ipvwkc; transform-box: view-box; transform-origin: -17.28px 2.6px; transform: matrix(1, 0, 0, 1, 0, 0);" data-idx="13">
          <path d="M220.24 46.49C224.88 46.49 228.48 44.97 231.04 42.33L231.04 45.29L244.64 45.29L244.64 25.21C244.64 12.97 235.44 4.01 222.64 4.01C210.16 4.01 200.64 13.61 200.64 25.21C200.64 36.89 208.56 46.49 220.24 46.49 zM222.64 32.97C218.08 32.97 215.04 29.45 215.04 25.29C215.04 21.05 218.08 17.53 222.64 17.53C227.20 17.53 230.24 21.05 230.24 25.29C230.24 29.45 227.20 32.97 222.64 32.97" style="fill: rgb(142, 153, 166);" transform="matrix(1,0,0,1,-239.9199981689453,-22.64699935913086)" data-idx="14"/>
        </g>
        <g class="path" style="opacity: 1; animation: 100s linear -43.52s infinite normal forwards paused animate-jt272ipvwkc; transform-box: view-box; transform-origin: 48.48px 1.84px; transform: matrix(1, 0, 0, 1, 0, 0);" data-idx="15">
          <path d="M303.76 3.69C296.88 3.69 291.12 6.65 288.48 11.53C286 6.65 280.56 3.69 273.04 3.69C259.28 3.69 252.64 13.29 252.64 24.41L252.64 45.29L267.04 45.29L267.04 26.89C267.04 21.85 268.88 17.69 274.16 17.69C279.44 17.69 281.20 21.85 281.20 26.89L281.20 45.29L295.60 45.29L295.60 26.89C295.60 21.85 297.36 17.69 302.64 17.69C307.92 17.69 309.76 21.85 309.76 26.89L309.76 45.29L324.16 45.29L324.16 24.41C324.16 13.29 317.52 3.69 303.76 3.69" style="fill: rgb(142, 153, 166);" transform="matrix(1,0,0,1,-239.9199981689453,-22.64699935913086)" data-idx="16"/>
        </g>
        <g class="path" style="opacity: 1; animation: 100s linear -37.52s infinite normal forwards paused animate-jt272ipvwkc; transform-box: view-box; transform-origin: 110.48px 3.28px; transform: matrix(1, 0, 0, 1, 0, 0);" data-idx="17">
          <path d="M338.16 37.45C340.40 43.53 344.64 46.57 350.40 46.57C356.16 46.57 360.16 43.53 362.40 37.45L374.24 5.29L358.88 5.29L350.40 30.33L341.92 5.29L326.56 5.29" style="fill: rgb(142, 153, 166);" transform="matrix(1,0,0,1,-239.9199981689453,-22.64699935913086)" data-idx="18"/>
        </g>
        <g class="path" style="opacity: 1; animation: 100s linear -31.52s infinite normal forwards paused animate-jt272ipvwkc; transform-box: view-box; transform-origin: 147.12px -30.24px; transform: matrix(1, 0, 0, 1, 0, 0);" data-idx="19">
          <path d="M387.04 1.05C391.76 1.05 395.68-2.87 395.68-7.59C395.68-12.31 391.76-16.23 387.04-16.23C382.32-16.23 378.40-12.31 378.40-7.59C378.40-2.87 382.32 1.05 387.04 1.05" style="fill: rgb(142, 153, 166);" transform="matrix(1,0,0,1,-239.9199981689453,-22.64699935913086)" data-idx="20"/>
        </g>
        <g class="path" style="opacity: 1; animation: 100s linear -25.52s infinite normal forwards paused animate-jt272ipvwkc; transform-box: view-box; transform-origin: 147.12px 2.64px; transform: matrix(1, 0, 0, 1, 0, 0);" data-idx="21">
          <path d="M379.84 5.29L379.84 45.29L394.24 45.29L394.24 5.29" style="fill: rgb(142, 153, 166);" transform="matrix(1,0,0,1,-239.9199981689453,-22.64699935913086)" data-idx="22"/>
        </g>
        <g class="path" style="opacity: 1; animation: 100s linear -19.52s infinite normal forwards paused animate-jt272ipvwkc; transform-box: view-box; transform-origin: 183.16px 2.4px; transform: matrix(1, 0, 0, 1, 0, 0);" data-idx="23">
          <path d="M424.64 46.41C433.60 46.41 440.40 41.93 443.84 34.49L432.80 28.97C431.36 32.09 428.32 34.17 424.48 34.17C420.08 34.17 417.04 31.77 416.08 27.77L443.92 27.77L443.92 24.17C443.92 13.45 436.64 3.69 423.52 3.69C410.88 3.69 402.24 13.29 402.24 24.81C402.24 37.93 411.84 46.41 424.64 46.41 zM416.72 20.33C417.60 18.01 419.92 16.01 423.36 16.01C426.72 16.01 428.96 18.09 429.60 20.33" style="fill: rgb(142, 153, 166);" transform="matrix(1,0,0,1,-239.9199981689453,-22.64699935913086)" data-idx="24"/>
        </g>
        <g class="path" style="opacity: 1; animation: 100s linear -13.52s infinite normal forwards paused animate-jt272ipvwkc; transform-box: view-box; transform-origin: 225.16px -1.72px; transform: matrix(1, 0, 0, 1, 0, 0);" data-idx="25">
          <path d="M473.84 46.57C476.56 46.57 480.24 46.01 482.24 44.89L482.24 32.17C480.32 33.21 477.20 33.77 475.20 33.77C471.44 33.77 469.12 31.61 469.12 27.77L469.12 17.29L482.24 17.29L482.24 5.29L469.12 5.29L469.12-4.71L454.72-4.71L454.72 5.29L447.92 5.29L447.92 17.29L454.72 17.29L454.72 28.25C454.72 38.89 460.80 46.57 473.84 46.57" style="fill: rgb(142, 153, 166);" transform="matrix(1,0,0,1,-239.9199981689453,-22.64699935913086)" data-idx="26"/>
        </g>
      </g>
      <text data-idx="27" style="dominant-baseline: middle; fill: rgb(142, 153, 166); font-size: 19px; pointer-events: none; text-anchor: middle; white-space: pre; opacity: 0;" dy="0.35em" _mstTextHash="112255" _mstHash="218">CGPHAMVIET</text>
    </g>
  </g>
</svg>